<?xml version="1.0" encoding="UTF-8"?>
<svg id="Layer_2" xmlns="http://www.w3.org/2000/svg" viewBox="0 0 118.75 118.75">
  <defs>
    <style>
      .cls-1 {
        stroke-width: .5px;
      }

      .cls-1, .cls-2 {
        stroke-miterlimit: 3.86;
      }

      .cls-1, .cls-2, .cls-3 {
        fill: none;
        stroke: #231f20;
      }

      .cls-3 {
        stroke-miterlimit: 3.86;
      }

      .cls-4 {
        fill: #45b864;
        fill-rule: evenodd;
      }
    </style>
  </defs>
  <g id="Layer_1-2" data-name="Layer_1">
    <path class="cls-4" d="M13.75,22.12s9.12-1.75,13.88,3.62,8,12.5,10.5,15.62,3.75,1.75,5.75,3.5,2.75,5.5,3.38,9.62,2.5,11.5,2.62,16,.5,4.25,3.12,4.38,3.75-2,5.62-2.38,3.25-.62,3.62,1.25.38,3.62,1,4.88,2.5.62,3.5.5.62,1.62,1.62,2.75,2.75.38,3.75,1,2.75,1.75,3.25,5.25,1.62,5.38,4.88,5.75,5.25-2.62,8.62-5.38,6.88-7.62,9.88-4.62c2.98,2.98,3.61,17.27-3.7,22.38,14.11-10.76,23.2-27.77,23.2-46.88C118.25,26.86,91.89.5,59.38.5,41.06.5,24.5,9.01,13.75,22.12Z"/>
    <path class="cls-3" d="M13.75,22.12s9.12-1.75,13.88,3.62,8,12.5,10.5,15.62,3.75,1.75,5.75,3.5,2.75,5.5,3.38,9.62,2.5,11.5,2.62,16,.5,4.25,3.12,4.38,3.75-2,5.62-2.38,3.25-.62,3.62,1.25.38,3.62,1,4.88,2.5.62,3.5.5.62,1.62,1.62,2.75,2.75.38,3.75,1,2.75,1.75,3.25,5.25,1.62,5.38,4.88,5.75,5.25-2.62,8.62-5.38,6.88-7.62,9.88-4.62c2.98,2.98,3.61,17.27-3.7,22.38,14.11-10.76,23.2-27.77,23.2-46.88C118.25,26.86,91.89.5,59.38.5,41.06.5,24.5,9.01,13.75,22.12Z"/>
    <path class="cls-3" d="M66.62,78.88s1-2.75,2.75-3.38,3-2.12,3-2.12"/>
    <path class="cls-1" d="M63.5,79.12s.12-1,1.75-2.62,1.26-.29,2.88-1.5c2.5-1.88,4.12-1.12,4.12-1.12"/>
    <path class="cls-1" d="M55.38,74.62c.73-1.58,2.1-3.37,4.12-5.38,1.99-1.45,2.7-.41,2.12,3.12"/>
    <path class="cls-1" d="M48.62,43.75c1.98,1.8,3.69,2.96,5.12,3.5"/>
    <line class="cls-1" x1="53.64" y1="47" x2="61.62" y2="37.75"/>
    <line class="cls-1" x1="51.52" y1="50.25" x2="53.62" y2="47"/>
    <path class="cls-2" d="M61.64,37.75c-2.08,5.06-4.35,8.69-6.77,10.88l-3.38,1.62"/>
    <path class="cls-2" d="M49.39,42.81c-.62,2.12-2.89,2.12-2.89,2.12"/>
    <path class="cls-2" d="M54.14,33.81c-1.16.23-1.64-.12-2.77,1.25s-1.38,5.62-2,7.75"/>
    <path class="cls-1" d="M46.52,44.94c-.5-.27,1.4-4.14,3.23-9.12.77-2.08,2.23-2.75,4.38-2"/>
    <path class="cls-1" d="M27.25,10c54-3.5,84,40.25,81.75,81.75"/>
    <path class="cls-3" d="M97.53,104.22c-10.28,8.75-23.6,14.03-38.15,14.03C26.86,118.25.5,91.89.5,59.38c0-13.84,4.73-26.57,12.75-36.62"/>
    <path class="cls-3" d="M97.53,104.22c-10.28,8.75-23.6,14.03-38.15,14.03C26.86,118.25.5,91.89.5,59.38c0-13.84,4.73-26.57,12.75-36.62"/>
  </g>
</svg>