<?xml version="1.0" encoding="UTF-8"?>
<svg id="Layer_2" xmlns="http://www.w3.org/2000/svg" viewBox="0 0 119.25 118.75">
  <defs>
    <style>
      .cls-1 {
        fill: #6fc284;
      }

      .cls-2 {
        stroke-miterlimit: 3.86;
        stroke-width: .25px;
      }

      .cls-2, .cls-3 {
        fill: none;
        stroke: #231f20;
      }

      .cls-3 {
        stroke-miterlimit: 3.86;
      }
    </style>
  </defs>
  <g id="Layer_1-2" data-name="Layer_1">
    <circle class="cls-1" cx="59.38" cy="59.38" r="58.87"/>
    <circle class="cls-3" cx="59.38" cy="59.38" r="58.87"/>
    <circle class="cls-3" cx="59.38" cy="59.38" r="58.87"/>
    <line class="cls-2" x1=".5" y1="58.25" x2="119.25" y2="58.25"/>
    <line class="cls-2" x1="59.88" y1="117.62" x2="59.88" y2=".61"/>
    <line class="cls-2" x1="18.46" y1="16.84" x2="101.86" y2="100.23"/>
    <line class="cls-2" x1="17.89" y1="100.23" x2="101.01" y2="17.12"/>
    <line class="cls-2" x1="34.27" y1="5.75" x2="85.9" y2="111.62"/>
    <line class="cls-2" x1="6.51" y1="84.28" x2="112.12" y2="32.77"/>
    <line class="cls-2" x1="4.84" y1="39.3" x2="116.02" y2="77.58"/>
    <line class="cls-2" x1="40.54" y1="114.39" x2="78.61" y2="3.83"/>
    <line class="cls-2" x1="1.55" y1="47.95" x2="118.5" y2="68.57"/>
    <line class="cls-2" x1="49.72" y1="116.74" x2="70.03" y2="1.5"/>
    <line class="cls-2" x1="26.43" y1="10.29" x2="94.08" y2="106.9"/>
    <line class="cls-2" x1="11.39" y1="92.32" x2="107.67" y2="24.9"/>
    <line class="cls-2" x1="43.93" y1="2.12" x2="76.39" y2="115.34"/>
    <line class="cls-2" x1="2.95" y1="74.63" x2="115.91" y2="42.24"/>
    <line class="cls-2" x1="9.12" y1="30.05" x2="111.96" y2="87.05"/>
    <line class="cls-2" x1="31.24" y1="110.19" x2="87.93" y2="7.92"/>
    <line class="cls-3" x1="95.05" y1="106.25" x2="94.88" y2="106.38"/>
  </g>
</svg>